<svg width="201" height="250" viewBox="0 0 201 250" fill="none" xmlns="http://www.w3.org/2000/svg">
<rect x="18.1564" y="213.13" width="183" height="152.804" rx="20" transform="rotate(-90.049 18.1564 213.13)" fill="#013BFE"/>
<circle cx="47" cy="62" r="19" fill="#A9BDFF"/>
<path d="M39 58.5L46.55 68.0131C46.9504 68.5175 47.7163 68.5175 48.1166 68.0131L64 48" stroke="#013BFE" stroke-width="4" stroke-linecap="round"/>
<rect x="30" y="151.859" width="158.051" height="131.972" rx="20" transform="rotate(-73.9096 30 151.859)" fill="#4D76FF"/>
<path d="M84.2535 23.3091L179.375 50.7473M80.9277 34.839L176.049 62.2772M77.6018 46.3689L172.724 73.8071M74.276 57.8988L169.398 85.337" stroke="#A9BDFF" stroke-linecap="round"/>
<path d="M70.8855 67.849L166.007 95.2872M67.5597 79.3789L162.681 106.817M64.2338 90.9088L159.356 118.347M60.908 102.439L156.03 129.877" stroke="#A9BDFF" stroke-linecap="round"/>
<path d="M56.8984 112.731L152.02 140.169M53.5726 124.26L148.694 151.699M50.2467 135.79L145.368 163.229" stroke="#B3ABF3" stroke-linecap="round"/>
</svg>
